<svg xmlns="http://www.w3.org/2000/svg" x="0px" y="0px" width="100" height="100" viewBox="0 0 64 64">
<linearGradient id="qkyuKYMzz9hOnH6Q~YT9Ka_Zy2R4v8bk9bb_gr1" x1="32" x2="32" y1="9.083" y2="54.676" gradientUnits="userSpaceOnUse"><stop offset="0" stop-color="#1a6dff"></stop><stop offset="1" stop-color="#c822ff"></stop></linearGradient><path fill="url(#qkyuKYMzz9hOnH6Q~YT9Ka_Zy2R4v8bk9bb_gr1)" d="M50,9H14c-2.757,0-5,2.243-5,5v36c0,2.757,2.243,5,5,5h36c2.757,0,5-2.243,5-5V14	C55,11.243,52.757,9,50,9z M53,50c0,1.654-1.346,3-3,3H14c-1.654,0-3-1.346-3-3V14c0-1.654,1.346-3,3-3h36c1.654,0,3,1.346,3,3V50z"></path><linearGradient id="qkyuKYMzz9hOnH6Q~YT9Kb_Zy2R4v8bk9bb_gr2" x1="37" x2="37" y1="16.202" y2="35.712" gradientUnits="userSpaceOnUse"><stop offset="0" stop-color="#6dc7ff"></stop><stop offset="1" stop-color="#e6abff"></stop></linearGradient><path fill="url(#qkyuKYMzz9hOnH6Q~YT9Kb_Zy2R4v8bk9bb_gr2)" d="M37.844,18.086c-0.479,0.447-1.209,0.447-1.688,0C32.091,14.287,26,16.403,26,22	c0,4.863,3.779,10.274,10.429,13.713c0.353,0.183,0.788,0.183,1.141,0C44.221,32.274,48,26.863,48,22	C48,16.403,41.909,14.287,37.844,18.086z"></path>
</svg>